<svg width="24" height="24" viewBox="0 0 24 24" fill="none" xmlns="http://www.w3.org/2000/svg">
<path fill-rule="evenodd" clip-rule="evenodd" d="M13.8085 10.2894C15.2078 9.15658 16.8127 8.34585 17.684 8.05542L18.3164 9.95279C17.6877 10.1624 16.2926 10.8516 15.0669 11.8438C13.8046 12.8657 13.0099 13.9738 13.0003 14.9855C13.0003 14.9917 13.0003 14.9979 13.0003 15.0041L11.0003 15.0041L11.0002 14.9863C10.991 13.9744 10.1962 12.8659 8.93361 11.8438C7.70793 10.8516 6.31278 10.1624 5.68408 9.95279L6.31654 8.05542C7.18783 8.34585 8.79269 9.15658 10.192 10.2894C10.4616 10.5076 10.7351 10.7471 11.0002 11.0064L12.0002 12.0078L13.0002 11.0064C13.2654 10.7471 13.5389 10.5076 13.8085 10.2894Z" fill="#333330"/>
</svg>
